<svg width="23" height="22" viewBox="0 0 23 22" fill="none" xmlns="http://www.w3.org/2000/svg">
<path d="M10.08 1.633C10.4 0.789 11.611 0.789 11.932 1.633L14.002 7.367C14.0742 7.55379 14.2014 7.71428 14.3667 7.8273C14.532 7.94031 14.7277 8.00053 14.928 8H20.015C20.955 8 21.365 9.17 20.626 9.743L17.006 13C16.8438 13.1247 16.7253 13.2975 16.6675 13.4937C16.6096 13.6898 16.6154 13.8993 16.684 14.092L18.006 19.695C18.328 20.595 17.286 21.368 16.498 20.814L11.581 17.694C11.4126 17.5757 11.2118 17.5122 11.006 17.5122C10.8002 17.5122 10.5994 17.5757 10.431 17.694L5.514 20.814C4.727 21.368 3.684 20.594 4.006 19.695L5.328 14.092C5.39658 13.8993 5.40236 13.6898 5.34451 13.4937C5.28666 13.2975 5.16816 13.1247 5.006 13L1.386 9.743C0.645999 9.17 1.058 8 1.996 8H7.083C7.28329 8.00067 7.47906 7.9405 7.64442 7.82747C7.80977 7.71444 7.9369 7.55387 8.009 7.367L10.079 1.633H10.08Z" stroke="black" stroke-width="2" stroke-linecap="round" stroke-linejoin="round"/>
</svg>
